<svg width="64" height="64" viewBox="0 0 64 64" fill="none" xmlns="http://www.w3.org/2000/svg">
<circle cx="32" cy="32" r="32" fill="white"/>
<path d="M20.5139 41.0552C17.883 43.2043 14.8633 44.7811 11.6345 45.6916C11.2788 45.8261 10.9715 46.0709 10.7544 46.3928C10.5373 46.715 10.4207 47.099 10.4207 47.4925C10.4207 47.886 10.5373 48.27 10.7544 48.5922C10.9715 48.9145 11.2788 49.1593 11.6345 49.2935C37.1306 60.1758 53.342 43.3542 50.8735 24.6934L55 15.8036H50.2103C44.2415 8.17837 28.3986 8.56155 31.0145 24.8084C31.0145 24.8084 22.5403 26.3794 11.7082 15.3055C11.4576 15.0482 11.1413 14.871 10.7969 14.7949C10.4525 14.7187 10.0943 14.7468 9.76481 14.8758C9.43527 15.0049 9.1482 15.2294 8.93757 15.5229C8.72695 15.8163 8.60161 16.1664 8.57639 16.5317C7.43102 21.4281 8.00422 26.589 10.1928 31.085C12.3813 35.5809 16.0414 39.1166 20.5139 41.0552Z" fill="#0D0D0D" stroke="black" stroke-linecap="round" stroke-linejoin="round"/>
</svg>
