<svg width="32" height="32" viewBox="0 0 32 32" fill="none" xmlns="http://www.w3.org/2000/svg">
<g clip-path="url(#clip0_14_1044)">
<path d="M27.8441 17.1429H9.14704L6.86133 5.71429H29.7184C29.8857 5.71491 30.0505 5.75217 30.2018 5.82348C30.3529 5.89477 30.4866 5.99839 30.5934 6.12698C30.7003 6.25555 30.7776 6.40602 30.8199 6.56771C30.8622 6.72943 30.8686 6.89843 30.8384 7.06287L28.9641 16.2057C28.9205 16.4701 28.7833 16.71 28.5778 16.8819C28.3723 17.0539 28.112 17.1465 27.8441 17.1429Z" stroke="black" stroke-linecap="round" stroke-linejoin="round"/>
<path d="M6.86126 5.71428L5.90126 2.05714C5.84857 1.799 5.7083 1.56699 5.5042 1.40038C5.30011 1.23377 5.04473 1.1428 4.78126 1.14285H1.14697" stroke="black" stroke-linecap="round" stroke-linejoin="round"/>
<path d="M9.14697 17.1429L10.107 21.9429C10.1597 22.201 10.2999 22.433 10.504 22.5996C10.7081 22.7662 10.9635 22.8571 11.227 22.8571H25.1469" stroke="black" stroke-linecap="round" stroke-linejoin="round"/>
<path d="M24.0042 30.8572C23.3731 30.8572 22.8613 30.3454 22.8613 29.7143C22.8613 29.0832 23.3731 28.5714 24.0042 28.5714C24.6355 28.5714 25.147 29.0832 25.147 29.7143C25.147 30.3454 24.6355 30.8572 24.0042 30.8572Z" stroke="black" stroke-linecap="round" stroke-linejoin="round"/>
<path d="M12.5755 30.8572C11.9443 30.8572 11.4326 30.3454 11.4326 29.7143C11.4326 29.0832 11.9443 28.5714 12.5755 28.5714C13.2067 28.5714 13.7183 29.0832 13.7183 29.7143C13.7183 30.3454 13.2067 30.8572 12.5755 30.8572Z" stroke="black" stroke-linecap="round" stroke-linejoin="round"/>
</g>
<defs>
<clipPath id="clip0_14_1044">
<rect width="32" height="32" fill="white"/>
</clipPath>
</defs>
</svg>
