<svg width="32" height="32" viewBox="0 0 32 32" fill="none" xmlns="http://www.w3.org/2000/svg">
<g clip-path="url(#clip0_14_1034)">
<path d="M16.0004 18.2857C19.1563 18.2857 21.7147 15.7273 21.7147 12.5714C21.7147 9.41552 19.1563 6.85715 16.0004 6.85715C12.8445 6.85715 10.2861 9.41552 10.2861 12.5714C10.2861 15.7273 12.8445 18.2857 16.0004 18.2857Z" stroke="black" stroke-linecap="round" stroke-linejoin="round"/>
<path d="M6.24023 27.2C7.26021 25.5257 8.69374 24.1419 10.403 23.1819C12.1123 22.2217 14.0398 21.7173 16.0002 21.7173C17.9607 21.7173 19.8882 22.2217 21.5975 23.1819C23.3068 24.1419 24.7402 25.5257 25.7603 27.2" stroke="black" stroke-linecap="round" stroke-linejoin="round"/>
<path d="M16.0002 30.8571C24.2057 30.8571 30.8574 24.2055 30.8574 16C30.8574 7.79462 24.2057 1.14285 16.0002 1.14285C7.79484 1.14285 1.14307 7.79462 1.14307 16C1.14307 24.2055 7.79484 30.8571 16.0002 30.8571Z" stroke="black" stroke-linecap="round" stroke-linejoin="round"/>
</g>
<defs>
<clipPath id="clip0_14_1034">
<rect width="32" height="32" fill="white"/>
</clipPath>
</defs>
</svg>
